<?xml version="1.0" encoding="UTF-8" standalone="no"?><svg xmlns="http://www.w3.org/2000/svg" xmlns:xlink="http://www.w3.org/1999/xlink" contentScriptType="application/ecmascript" contentStyleType="text/css" height="1023px" preserveAspectRatio="none" style="width:1394px;height:1023px;background:#FFFFFF;" version="1.1" viewBox="0 0 1394 1023" width="1394px" zoomAndPan="magnify"><defs><filter height="300%" id="f12ndaofydb1d2" width="300%" x="-1" y="-1"><feGaussianBlur result="blurOut" stdDeviation="2.0"/><feColorMatrix in="blurOut" result="blurOut2" type="matrix" values="0 0 0 0 0 0 0 0 0 0 0 0 0 0 0 0 0 0 .4 0"/><feOffset dx="4.0" dy="4.0" in="blurOut2" result="blurOut3"/><feBlend in="SourceGraphic" in2="blurOut3" mode="normal"/></filter></defs><g><!--MD5=[3803e5d52f91687df277c84fb8062e99]
entity ChargéDeLaboratoire--><ellipse cx="942" cy="14" fill="#FEFECE" filter="url(#f12ndaofydb1d2)" rx="8" ry="8" style="stroke:#A80036;stroke-width:1.5;"/><path d="M942,22 L942,49 M929,30 L955,30 M942,49 L929,64 M942,49 L955,64 " fill="none" filter="url(#f12ndaofydb1d2)" style="stroke:#A80036;stroke-width:1.5;"/><text fill="#000000" font-family="sans-serif" font-size="14" lengthAdjust="spacing" textLength="155" x="864.5" y="82.4951">ChargéDeLaboratoire</text><!--MD5=[db11383ff3a148b1ddf9b7fccaba896c]
entity TesteurSystem--><ellipse cx="292" cy="14" fill="#FEFECE" filter="url(#f12ndaofydb1d2)" rx="8" ry="8" style="stroke:#A80036;stroke-width:1.5;"/><path d="M292,22 L292,49 M279,30 L305,30 M292,49 L279,64 M292,49 L305,64 " fill="none" filter="url(#f12ndaofydb1d2)" style="stroke:#A80036;stroke-width:1.5;"/><text fill="#000000" font-family="sans-serif" font-size="14" lengthAdjust="spacing" textLength="109" x="237.5" y="82.4951">TesteurSystem</text><!--MD5=[b90bc90684e5d544d51fe5a7c391d9af]
entity IDataReader--><ellipse cx="1009" cy="623" fill="#FEFECE" filter="url(#f12ndaofydb1d2)" rx="8" ry="8" style="stroke:#A80036;stroke-width:1.5;"/><text fill="#000000" font-family="sans-serif" font-size="14" lengthAdjust="spacing" textLength="89" x="964.5" y="652.9951">IDataReader</text><!--MD5=[842efaca1b91ae372aec8c2ca7539b50]
entity IExternalService--><ellipse cx="581" cy="623" fill="#FEFECE" filter="url(#f12ndaofydb1d2)" rx="8" ry="8" style="stroke:#A80036;stroke-width:1.5;"/><text fill="#000000" font-family="sans-serif" font-size="14" lengthAdjust="spacing" textLength="117" x="522.5" y="652.9951">IExternalService</text><!--MD5=[2897e7948b16a70c96820f1bd1720318]
entity IRouteComparator--><ellipse cx="504" cy="377.5" fill="#FEFECE" filter="url(#f12ndaofydb1d2)" rx="8" ry="8" style="stroke:#A80036;stroke-width:1.5;"/><text fill="#000000" font-family="sans-serif" font-size="14" lengthAdjust="spacing" textLength="134" x="437" y="407.4951">IRouteComparator</text><!--MD5=[f866d8bfbf53c1f5d784d6083204d555]
entity IServiceDiscovery--><ellipse cx="793" cy="623" fill="#FEFECE" filter="url(#f12ndaofydb1d2)" rx="8" ry="8" style="stroke:#A80036;stroke-width:1.5;"/><text fill="#000000" font-family="sans-serif" font-size="14" lengthAdjust="spacing" textLength="127" x="729.5" y="652.9951">IServiceDiscovery</text><!--MD5=[18592175333be2d560e2840ee7365b96]
entity IServiceRegister--><ellipse cx="810" cy="884.5" fill="#FEFECE" filter="url(#f12ndaofydb1d2)" rx="8" ry="8" style="stroke:#A80036;stroke-width:1.5;"/><text fill="#000000" font-family="sans-serif" font-size="14" lengthAdjust="spacing" textLength="118" x="751" y="914.4951">IServiceRegister</text><!--MD5=[eb4ecfecf4db4d82c1851e621d8c09d4]
entity ChaosMonkey--><rect fill="#FEFECE" filter="url(#f12ndaofydb1d2)" height="62.5938" style="stroke:#A80036;stroke-width:1.5;" width="204" x="754" y="255.5"/><rect fill="#FEFECE" height="10" style="stroke:#A80036;stroke-width:1.5;" width="15" x="938" y="260.5"/><rect fill="#FEFECE" height="2" style="stroke:#A80036;stroke-width:1.5;" width="4" x="936" y="262.5"/><rect fill="#FEFECE" height="2" style="stroke:#A80036;stroke-width:1.5;" width="4" x="936" y="266.5"/><text fill="#000000" font-family="sans-serif" font-size="14" font-style="italic" lengthAdjust="spacing" textLength="164" x="769" y="288.4951">«Microservice avec UI»</text><text fill="#000000" font-family="sans-serif" font-size="14" lengthAdjust="spacing" textLength="99" x="801.5" y="304.792">ChaosMonkey</text><!--MD5=[c7cfc8e5f96cfc3ab124b32464654232]
entity ExternalServices--><rect fill="#FEFECE" filter="url(#f12ndaofydb1d2)" height="62.5938" style="stroke:#A80036;stroke-width:1.5;" width="160" x="483" y="731.5"/><rect fill="#FEFECE" height="10" style="stroke:#A80036;stroke-width:1.5;" width="15" x="623" y="736.5"/><rect fill="#FEFECE" height="2" style="stroke:#A80036;stroke-width:1.5;" width="4" x="621" y="738.5"/><rect fill="#FEFECE" height="2" style="stroke:#A80036;stroke-width:1.5;" width="4" x="621" y="742.5"/><text fill="#000000" font-family="sans-serif" font-size="14" font-style="italic" lengthAdjust="spacing" textLength="108" x="504" y="764.4951">«Microservice»</text><text fill="#000000" font-family="sans-serif" font-size="14" lengthAdjust="spacing" textLength="120" x="498" y="780.792">ExternalServices</text><!--MD5=[b3ed4567f44168bde1d9f3e3c9523f5b]
entity GpsMobileComparatorApp--><rect fill="#FEFECE" filter="url(#f12ndaofydb1d2)" height="62.5938" style="stroke:#A80036;stroke-width:1.5;" width="233" x="344.5" y="162.5"/><rect fill="#FEFECE" height="10" style="stroke:#A80036;stroke-width:1.5;" width="15" x="557.5" y="167.5"/><rect fill="#FEFECE" height="2" style="stroke:#A80036;stroke-width:1.5;" width="4" x="555.5" y="169.5"/><rect fill="#FEFECE" height="2" style="stroke:#A80036;stroke-width:1.5;" width="4" x="555.5" y="173.5"/><text fill="#000000" font-family="sans-serif" font-size="14" font-style="italic" lengthAdjust="spacing" textLength="148" x="382" y="195.4951">«Mobile application»</text><text fill="#000000" font-family="sans-serif" font-size="14" lengthAdjust="spacing" textLength="193" x="359.5" y="211.792">GpsMobileComparatorApp</text><!--MD5=[2f999ea01d4d9511d202ff4d953344f9]
entity GpsMobileComparatorAppSimulator--><rect fill="#FEFECE" filter="url(#f12ndaofydb1d2)" height="62.5938" style="stroke:#A80036;stroke-width:1.5;" width="302" x="7" y="162.5"/><rect fill="#FEFECE" height="10" style="stroke:#A80036;stroke-width:1.5;" width="15" x="289" y="167.5"/><rect fill="#FEFECE" height="2" style="stroke:#A80036;stroke-width:1.5;" width="4" x="287" y="169.5"/><rect fill="#FEFECE" height="2" style="stroke:#A80036;stroke-width:1.5;" width="4" x="287" y="173.5"/><text fill="#000000" font-family="sans-serif" font-size="14" font-style="italic" lengthAdjust="spacing" textLength="164" x="71" y="195.4951">«Microservice avec UI»</text><text fill="#000000" font-family="sans-serif" font-size="14" lengthAdjust="spacing" textLength="262" x="22" y="211.792">GpsMobileComparatorAppSimulator</text><!--MD5=[ab4e474b87ef7cb73f9e2d2e975eb3fd]
entity MqttServerSimulation--><rect fill="#FEFECE" filter="url(#f12ndaofydb1d2)" height="62.5938" style="stroke:#A80036;stroke-width:1.5;" width="198" x="910" y="731.5"/><rect fill="#FEFECE" height="10" style="stroke:#A80036;stroke-width:1.5;" width="15" x="1088" y="736.5"/><rect fill="#FEFECE" height="2" style="stroke:#A80036;stroke-width:1.5;" width="4" x="1086" y="738.5"/><rect fill="#FEFECE" height="2" style="stroke:#A80036;stroke-width:1.5;" width="4" x="1086" y="742.5"/><text fill="#000000" font-family="sans-serif" font-size="14" font-style="italic" lengthAdjust="spacing" textLength="108" x="950" y="764.4951">«Microservice»</text><text fill="#000000" font-family="sans-serif" font-size="14" lengthAdjust="spacing" textLength="158" x="925" y="780.792">MqttServerSimulation</text><!--MD5=[9c4e4f2261af41e2c3f3f6eecc3180c2]
entity MqttServerSwitch--><rect fill="#FEFECE" filter="url(#f12ndaofydb1d2)" height="62.5938" style="stroke:#A80036;stroke-width:1.5;" width="204" x="907" y="467.5"/><rect fill="#FEFECE" height="10" style="stroke:#A80036;stroke-width:1.5;" width="15" x="1091" y="472.5"/><rect fill="#FEFECE" height="2" style="stroke:#A80036;stroke-width:1.5;" width="4" x="1089" y="474.5"/><rect fill="#FEFECE" height="2" style="stroke:#A80036;stroke-width:1.5;" width="4" x="1089" y="478.5"/><text fill="#000000" font-family="sans-serif" font-size="14" font-style="italic" lengthAdjust="spacing" textLength="164" x="922" y="500.4951">«Microservice avec UI»</text><text fill="#000000" font-family="sans-serif" font-size="14" lengthAdjust="spacing" textLength="130" x="939" y="516.792">MqttServerSwitch</text><!--MD5=[ae539fa07cb00383d26cd855c923a860]
entity MqttServerVilleDeMontreal--><rect fill="#FEFECE" filter="url(#f12ndaofydb1d2)" height="62.5938" style="stroke:#A80036;stroke-width:1.5;" width="237" x="1143.5" y="731.5"/><rect fill="#FEFECE" height="10" style="stroke:#A80036;stroke-width:1.5;" width="15" x="1360.5" y="736.5"/><rect fill="#FEFECE" height="2" style="stroke:#A80036;stroke-width:1.5;" width="4" x="1358.5" y="738.5"/><rect fill="#FEFECE" height="2" style="stroke:#A80036;stroke-width:1.5;" width="4" x="1358.5" y="742.5"/><text fill="#000000" font-family="sans-serif" font-size="14" font-style="italic" lengthAdjust="spacing" textLength="108" x="1203" y="764.4951">«Microservice»</text><text fill="#000000" font-family="sans-serif" font-size="14" lengthAdjust="spacing" textLength="197" x="1158.5" y="780.792">MqttServerVilleDeMontreal</text><!--MD5=[8b09257cf7a3190a8a26ca3c067c1038]
entity PerturbateurDeTraffic--><rect fill="#FEFECE" filter="url(#f12ndaofydb1d2)" height="62.5938" style="stroke:#A80036;stroke-width:1.5;" width="200" x="1064" y="591.5"/><rect fill="#FEFECE" height="10" style="stroke:#A80036;stroke-width:1.5;" width="15" x="1244" y="596.5"/><rect fill="#FEFECE" height="2" style="stroke:#A80036;stroke-width:1.5;" width="4" x="1242" y="598.5"/><rect fill="#FEFECE" height="2" style="stroke:#A80036;stroke-width:1.5;" width="4" x="1242" y="602.5"/><text fill="#000000" font-family="sans-serif" font-size="14" font-style="italic" lengthAdjust="spacing" textLength="159" x="1079.5" y="624.4951">«Microservice with UI»</text><text fill="#000000" font-family="sans-serif" font-size="14" lengthAdjust="spacing" textLength="160" x="1079" y="640.792">PerturbateurDeTraffic</text><!--MD5=[1efef1404cbab722352884b3ce0cdb7a]
entity RouteComparatorApp--><rect fill="#FEFECE" filter="url(#f12ndaofydb1d2)" height="62.5938" style="stroke:#A80036;stroke-width:1.5;" width="200" x="613" y="162.5"/><rect fill="#FEFECE" height="10" style="stroke:#A80036;stroke-width:1.5;" width="15" x="793" y="167.5"/><rect fill="#FEFECE" height="2" style="stroke:#A80036;stroke-width:1.5;" width="4" x="791" y="169.5"/><rect fill="#FEFECE" height="2" style="stroke:#A80036;stroke-width:1.5;" width="4" x="791" y="173.5"/><text fill="#000000" font-family="sans-serif" font-size="14" font-style="italic" lengthAdjust="spacing" textLength="159" x="628.5" y="195.4951">«Microservice with UI»</text><text fill="#000000" font-family="sans-serif" font-size="14" lengthAdjust="spacing" textLength="160" x="628" y="211.792">RouteComparatorApp</text><!--MD5=[d98e2dfd9ac48ebdbd37b54d4f43e7f8]
entity RouteComparatorService--><rect fill="#FEFECE" filter="url(#f12ndaofydb1d2)" height="62.5938" style="stroke:#A80036;stroke-width:1.5;" width="223" x="493.5" y="467.5"/><rect fill="#FEFECE" height="10" style="stroke:#A80036;stroke-width:1.5;" width="15" x="696.5" y="472.5"/><rect fill="#FEFECE" height="2" style="stroke:#A80036;stroke-width:1.5;" width="4" x="694.5" y="474.5"/><rect fill="#FEFECE" height="2" style="stroke:#A80036;stroke-width:1.5;" width="4" x="694.5" y="478.5"/><text fill="#000000" font-family="sans-serif" font-size="14" font-style="italic" lengthAdjust="spacing" textLength="108" x="546" y="500.4951">«Microservice»</text><text fill="#000000" font-family="sans-serif" font-size="14" lengthAdjust="spacing" textLength="183" x="508.5" y="516.792">RouteComparatorService</text><!--MD5=[7c70543e1842cd203974831c9b7b3000]
entity ServiceDiscovery--><rect fill="#FEFECE" filter="url(#f12ndaofydb1d2)" height="62.5938" style="stroke:#A80036;stroke-width:1.5;" width="163" x="711.5" y="731.5"/><rect fill="#FEFECE" height="10" style="stroke:#A80036;stroke-width:1.5;" width="15" x="854.5" y="736.5"/><rect fill="#FEFECE" height="2" style="stroke:#A80036;stroke-width:1.5;" width="4" x="852.5" y="738.5"/><rect fill="#FEFECE" height="2" style="stroke:#A80036;stroke-width:1.5;" width="4" x="852.5" y="742.5"/><text fill="#000000" font-family="sans-serif" font-size="14" font-style="italic" lengthAdjust="spacing" textLength="108" x="734" y="764.4951">«Microservice»</text><text fill="#000000" font-family="sans-serif" font-size="14" lengthAdjust="spacing" textLength="123" x="726.5" y="780.792">ServiceDiscovery</text><path d="M384,864.5 L384,904.7656 A0,0 0 0 0 384,904.7656 L708,904.7656 A0,0 0 0 0 708,904.7656 L708,874.5 L698,864.5 L552.716,864.5 L558.622,794.774 L544.716,864.5 L384,864.5 A0,0 0 0 0 384,864.5 " fill="#FBFB77" filter="url(#f12ndaofydb1d2)" style="stroke:#A80036;stroke-width:1.0;"/><path d="M698,864.5 L698,874.5 L708,874.5 L698,864.5 " fill="#FBFB77" style="stroke:#A80036;stroke-width:1.0;"/><text fill="#000000" font-family="sans-serif" font-size="13" lengthAdjust="spacing" textLength="231" x="390" y="881.5669">Un seul service externe par équipeÉ</text><text fill="#000000" font-family="sans-serif" font-size="13" lengthAdjust="spacing" textLength="303" x="390" y="896.6997">Chaque équipe doit utiliser un service différent.</text><path d="M680.5,974.5 L680.5,1014.7656 A0,0 0 0 0 680.5,1014.7656 L939.5,1014.7656 A0,0 0 0 0 939.5,1014.7656 L939.5,984.5 L929.5,974.5 L814,974.5 L810,893.618 L806,974.5 L680.5,974.5 A0,0 0 0 0 680.5,974.5 " fill="#FBFB77" filter="url(#f12ndaofydb1d2)" style="stroke:#A80036;stroke-width:1.0;"/><path d="M929.5,974.5 L929.5,984.5 L939.5,984.5 L929.5,974.5 " fill="#FBFB77" style="stroke:#A80036;stroke-width:1.0;"/><text fill="#000000" font-family="sans-serif" font-size="13" lengthAdjust="spacing" textLength="238" x="686.5" y="991.5669">Tous les microservices s'enregistrent</text><text fill="#000000" font-family="sans-serif" font-size="13" lengthAdjust="spacing" textLength="163" x="686.5" y="1006.6997">à l'aide de cette interface</text><!--MD5=[00cbc42be1176192ab1f7a484eac0707]
link PerturbateurDeTraffic to MqttServerSimulation--><path d="M1129.6,654.627 C1103.91,677.496 1068.97,708.611 1043.3,731.459 " fill="none" id="PerturbateurDeTraffic-MqttServerSimulation" style="stroke:#A80036;stroke-width:1.0;"/><text fill="#000000" font-family="sans-serif" font-size="13" lengthAdjust="spacing" textLength="55" x="1096" y="697.5669">perturbe</text><!--MD5=[25c304187a0b68639fe7671fafc28e8d]
link PerturbateurDeTraffic to MqttServerVilleDeMontreal--><path d="M1191.42,654.657 C1199.34,663.998 1207.79,674.457 1215,684.5 C1225.74,699.454 1236.48,716.928 1244.98,731.494 " fill="none" id="PerturbateurDeTraffic-MqttServerVilleDeMontreal" style="stroke:#A80036;stroke-width:1.0;"/><text fill="#000000" font-family="sans-serif" font-size="13" lengthAdjust="spacing" textLength="55" x="1227" y="697.5669">perturbe</text><!--MD5=[a177bc169e74215ce02e5c3dd9272cf4]
reverse link IExternalService to ExternalServices--><path d="M577.3,652.368 C574.295,675.402 570.067,707.822 566.987,731.43 " fill="none" id="IExternalService-backto-ExternalServices" style="stroke:#A80036;stroke-width:1.0;stroke-dasharray:7.0,7.0;"/><polygon fill="none" points="570.4,651.146,579.928,632.219,584.282,652.957,570.4,651.146" style="stroke:#A80036;stroke-width:1.0;"/><!--MD5=[7e0a1d36589d45ac5e972aa6ddd22636]
link ServiceDiscovery to IServiceRegister--><path d="M797.378,794.774 C800.046,813.527 803.428,837.304 806.02,855.523 " fill="none" id="ServiceDiscovery-to-IServiceRegister" style="stroke:#A80036;stroke-width:1.0;stroke-dasharray:7.0,7.0;"/><polygon fill="none" points="812.958,854.595,808.845,875.382,799.098,856.567,812.958,854.595" style="stroke:#A80036;stroke-width:1.0;"/><!--MD5=[3105067488bb2591281d54636d51d73a]
reverse link IServiceDiscovery to ServiceDiscovery--><path d="M793,652.368 C793,675.402 793,707.822 793,731.43 " fill="none" id="IServiceDiscovery-backto-ServiceDiscovery" style="stroke:#A80036;stroke-width:1.0;stroke-dasharray:7.0,7.0;"/><polygon fill="none" points="786,652.219,793,632.219,800,652.219,786,652.219" style="stroke:#A80036;stroke-width:1.0;"/><!--MD5=[d3bb12589177d33e1313740e40532431]
link ChaosMonkey to IServiceDiscovery--><path d="M850.242,318.526 C836.993,388.769 804.773,559.586 795.522,608.63 " fill="none" id="ChaosMonkey-to-IServiceDiscovery" style="stroke:#A80036;stroke-width:1.0;"/><polygon fill="#A80036" points="794.557,613.745,800.1539,605.641,795.4826,608.8314,792.2922,604.1601,794.557,613.745" style="stroke:#A80036;stroke-width:1.0;"/><!--MD5=[17bf90bcf1889c89e88f6d7c12c3e926]
link ChargéDeLaboratoire to PerturbateurDeTraffic--><path d="M1019.64,63.51 C1083.66,83.077 1164,121.813 1164,193 C1164,193 1164,193 1164,500 C1164,529.068 1164,562.031 1164,586.36 " fill="none" id="ChargéDeLaboratoire-to-PerturbateurDeTraffic" style="stroke:#A80036;stroke-width:1.0;"/><polygon fill="#A80036" points="1164,591.416,1168,582.416,1164,586.416,1160,582.416,1164,591.416" style="stroke:#A80036;stroke-width:1.0;"/><!--MD5=[e801dc08cbc8dd002959749b45d7792d]
link ChargéDeLaboratoire to ChaosMonkey--><path d="M888.452,85.757 C879.907,94.585 872.185,104.599 867,115.5 C846.6,158.393 847.417,214.333 850.889,250.218 " fill="none" id="ChargéDeLaboratoire-to-ChaosMonkey" style="stroke:#A80036;stroke-width:1.0;"/><polygon fill="#A80036" points="851.419,255.363,854.4775,246.0011,850.9076,250.3892,846.5195,246.8193,851.419,255.363" style="stroke:#A80036;stroke-width:1.0;"/><text fill="#000000" font-family="sans-serif" font-size="13" lengthAdjust="spacing" textLength="119" x="868" y="128.5669">Utilise et configure</text><!--MD5=[118802306dee7bd1f05f33b2d984833a]
link ChargéDeLaboratoire to MqttServerSwitch--><path d="M976.414,85.679 C982.695,94.917 988.394,105.109 992,115.5 C1013.96,178.792 1011.88,379.561 1010,462.067 " fill="none" id="ChargéDeLaboratoire-to-MqttServerSwitch" style="stroke:#A80036;stroke-width:1.0;"/><polygon fill="#A80036" points="1009.88,467.328,1014.0897,458.4242,1009.9971,462.3294,1006.0919,458.2368,1009.88,467.328" style="stroke:#A80036;stroke-width:1.0;"/><text fill="#000000" font-family="sans-serif" font-size="13" lengthAdjust="spacing" textLength="121" x="1011" y="291.5669">switch data source</text><!--MD5=[1a7673fd29f14e4e7d76b2f1ddd50905]
link ChargéDeLaboratoire to RouteComparatorApp--><path d="M864.296,58.627 C803.173,70.331 725.219,89.805 706,115.5 C697.208,127.255 697.14,142.993 699.975,157.215 " fill="none" id="ChargéDeLaboratoire-to-RouteComparatorApp" style="stroke:#A80036;stroke-width:1.0;"/><polygon fill="#A80036" points="701.14,162.376,703.0592,152.7159,700.0386,157.4988,695.2557,154.4782,701.14,162.376" style="stroke:#A80036;stroke-width:1.0;"/><text fill="#000000" font-family="sans-serif" font-size="13" lengthAdjust="spacing" textLength="119" x="707" y="128.5669">Utilise et configure</text><!--MD5=[afe298be221b1212ea53e8b583d0404f]
link GpsMobileComparatorApp to IRouteComparator--><path d="M468.294,225.789 C477.819,265.991 494.076,334.611 500.871,363.291 " fill="none" id="GpsMobileComparatorApp-to-IRouteComparator" style="stroke:#A80036;stroke-width:1.0;"/><polygon fill="#A80036" points="502.099,368.474,503.919,358.7948,500.9476,363.6084,496.134,360.637,502.099,368.474" style="stroke:#A80036;stroke-width:1.0;"/><!--MD5=[5f5a11f178f0579168464e89f25832ed]
link GpsMobileComparatorAppSimulator to IRouteComparator--><path d="M216.303,225.584 C298.994,268.96 445.314,345.715 490.396,369.364 " fill="none" id="GpsMobileComparatorAppSimulator-to-IRouteComparator" style="stroke:#A80036;stroke-width:1.0;"/><polygon fill="#A80036" points="494.912,371.733,488.8008,364.0094,490.4844,369.4099,485.0839,371.0935,494.912,371.733" style="stroke:#A80036;stroke-width:1.0;"/><!--MD5=[fb2890ce53b93f07af6ddec971324eb5]
reverse link IDataReader to MqttServerSimulation--><path d="M1009,652.368 C1009,675.402 1009,707.822 1009,731.43 " fill="none" id="IDataReader-backto-MqttServerSimulation" style="stroke:#A80036;stroke-width:1.0;stroke-dasharray:7.0,7.0;"/><polygon fill="none" points="1002,652.219,1009,632.219,1016,652.219,1002,652.219" style="stroke:#A80036;stroke-width:1.0;"/><!--MD5=[54fd4ec34ee9dbafe47b82804fda6bf6]
link MqttServerSwitch to IDataReader--><path d="M997.757,530.786 C995.643,550.242 995.753,575.184 998.088,594.068 " fill="none" id="MqttServerSwitch-to-IDataReader" style="stroke:#A80036;stroke-width:1.0;stroke-dasharray:7.0,7.0;"/><polygon fill="none" points="1004.988,592.867,1002.234,613.877,991.285,595.735,1004.988,592.867" style="stroke:#A80036;stroke-width:1.0;"/><!--MD5=[54fd4ec34ee9dbafe47b82804fda6bf6]
link MqttServerSwitch to IDataReader--><path d="M1020.9,530.786 C1023.81,556.079 1022.74,590.643 1017.69,609.115 " fill="none" id="MqttServerSwitch-to-IDataReader-1" style="stroke:#A80036;stroke-width:1.0;"/><polygon fill="#A80036" points="1016.16,613.877,1022.7235,606.5339,1017.6909,609.1171,1015.1077,604.0845,1016.16,613.877" style="stroke:#A80036;stroke-width:1.0;"/><!--MD5=[e68fdd18cd5e0ee08f43da6e7c779988]
reverse link IDataReader to MqttServerVilleDeMontreal--><path d="M1030.95,646.563 C1048.4,663.492 1074.1,686.278 1100,701.5 C1119.67,713.063 1141.94,723.093 1163.53,731.48 " fill="none" id="IDataReader-backto-MqttServerVilleDeMontreal" style="stroke:#A80036;stroke-width:1.0;stroke-dasharray:7.0,7.0;"/><polygon fill="none" points="1025.92,651.438,1016.78,632.324,1035.85,641.562,1025.92,651.438" style="stroke:#A80036;stroke-width:1.0;"/><!--MD5=[30db7db35a8ab1edaa45edc3e3c43dfa]
link RouteComparatorApp to IRouteComparator--><path d="M677.546,225.789 C630.288,266.829 548.93,337.482 517.207,365.031 " fill="none" id="RouteComparatorApp-to-IRouteComparator" style="stroke:#A80036;stroke-width:1.0;"/><polygon fill="#A80036" points="513.242,368.474,522.6597,365.5917,517.0167,365.1951,517.4133,359.5521,513.242,368.474" style="stroke:#A80036;stroke-width:1.0;"/><!--MD5=[6cfb8d55769b1e30f6cb2b13bee44558]
link RouteComparatorService to IDataReader--><path d="M706.164,530.55 C805.885,560.663 949.701,604.093 994.875,617.734 " fill="none" id="RouteComparatorService-to-IDataReader" style="stroke:#A80036;stroke-width:1.0;"/><polygon fill="#A80036" points="999.885,619.247,992.4245,612.8173,995.0982,617.8024,990.1131,620.4761,999.885,619.247" style="stroke:#A80036;stroke-width:1.0;"/><!--MD5=[0cbbcba7f61df7d8f9750dddea48b902]
link RouteComparatorService to IExternalService--><path d="M598.944,530.786 C594.011,555.862 587.285,590.053 583.629,608.638 " fill="none" id="RouteComparatorService-to-IExternalService" style="stroke:#A80036;stroke-width:1.0;"/><polygon fill="#A80036" points="582.598,613.877,588.261,605.8191,583.5637,608.9712,580.4117,604.2739,582.598,613.877" style="stroke:#A80036;stroke-width:1.0;"/><!--MD5=[11b538aaf071db10615b172c86713022]
link RouteComparatorService to IServiceDiscovery--><path d="M652.44,530.786 C694.6,558.144 753.476,596.351 779.601,613.305 " fill="none" id="RouteComparatorService-to-IServiceDiscovery" style="stroke:#A80036;stroke-width:1.0;"/><polygon fill="#A80036" points="783.797,616.028,778.4242,607.7737,779.6026,613.3065,774.0698,614.4848,783.797,616.028" style="stroke:#A80036;stroke-width:1.0;"/><!--MD5=[17357efc7e9843ab0f19a84123fb14d2]
reverse link IRouteComparator to RouteComparatorService--><path d="M523.971,402.13 C539.761,420.812 561.925,447.035 579.082,467.335 " fill="none" id="IRouteComparator-backto-RouteComparatorService" style="stroke:#A80036;stroke-width:1.0;stroke-dasharray:7.0,7.0;"/><polygon fill="none" points="518.506,406.507,510.942,386.714,529.199,397.47,518.506,406.507" style="stroke:#A80036;stroke-width:1.0;"/><!--MD5=[be28142a8a87a489dae8632d05c115ec]
link TesteurSystem to GpsMobileComparatorApp--><path d="M337.734,85.78 C363.993,108.621 396.63,137.009 421.723,158.836 " fill="none" id="TesteurSystem-to-GpsMobileComparatorApp" style="stroke:#A80036;stroke-width:1.0;"/><polygon fill="#A80036" points="425.684,162.281,421.5182,153.3565,421.9113,158.9997,416.2681,159.3928,425.684,162.281" style="stroke:#A80036;stroke-width:1.0;"/><text fill="#000000" font-family="sans-serif" font-size="13" lengthAdjust="spacing" textLength="118" x="388" y="128.5669">utilise et configure</text><!--MD5=[b878c1b581106a4a58681f09fd51ec80]
link TesteurSystem to GpsMobileComparatorAppSimulator--><path d="M254.708,85.537 C245.597,95.289 235.909,105.737 227,115.5 C214.235,129.488 200.32,145.055 188.351,158.547 " fill="none" id="TesteurSystem-to-GpsMobileComparatorAppSimulator" style="stroke:#A80036;stroke-width:1.0;"/><polygon fill="#A80036" points="185.029,162.294,193.9918,158.2114,188.3452,158.552,188.0046,152.9054,185.029,162.294" style="stroke:#A80036;stroke-width:1.0;"/><text fill="#000000" font-family="sans-serif" font-size="13" lengthAdjust="spacing" textLength="118" x="228" y="128.5669">utilise et configure</text><!--MD5=[800130c120537f25d1259810cbfeb942]
@startuml
Actor ChargéDeLaboratoire
Actor TesteurSystem 

interface IDataReader
interface IExternalService
interface IRouteComparator
interface IServiceDiscovery
interface IServiceRegister

component ChaosMonkey <<Microservice avec UI>>
component ExternalServices <<Microservice>>
component GpsMobileComparatorApp <<Mobile application>>
component GpsMobileComparatorAppSimulator <<Microservice avec UI>>
component MqttServerSimulation <<Microservice>>
component MqttServerSwitch <<Microservice avec UI>>
component MqttServerVilleDeMontreal <<Microservice>>
component PerturbateurDeTraffic <<Microservice with UI>>
component RouteComparatorApp <<Microservice with UI>>
component RouteComparatorService <<Microservice>>
component ServiceDiscovery <<Microservice>>

note bottom of ExternalServices: Un seul service externe par équipeÉ\nChaque équipe doit utiliser un service différent.  
note bottom of IServiceRegister: Tous les microservices s'enregistrent\nà l'aide de cette interface


PerturbateurDeTraffic - - MqttServerSimulation: perturbe
PerturbateurDeTraffic - - MqttServerVilleDeMontreal: perturbe


ExternalServices .u.|> IExternalService

ServiceDiscovery .d.|> IServiceRegister
ServiceDiscovery .u.|> IServiceDiscovery
ChaosMonkey - -> IServiceDiscovery 
ChargéDeLaboratoire - -> PerturbateurDeTraffic
ChargéDeLaboratoire - -> ChaosMonkey  : Utilise et configure
ChargéDeLaboratoire - -> MqttServerSwitch  :switch data source
ChargéDeLaboratoire - -> RouteComparatorApp  : Utilise et configure
GpsMobileComparatorApp -d-> IRouteComparator
GpsMobileComparatorAppSimulator -d-> IRouteComparator
MqttServerSimulation .u.|> IDataReader
MqttServerSwitch  ..|> IDataReader
MqttServerSwitch - -> IDataReader
MqttServerVilleDeMontreal .u.|> IDataReader
RouteComparatorApp - -> IRouteComparator
RouteComparatorService - -> IDataReader
RouteComparatorService - -> IExternalService
RouteComparatorService - -> IServiceDiscovery
RouteComparatorService .u.|> IRouteComparator
TesteurSystem  - -> GpsMobileComparatorApp: utilise et configure 
TesteurSystem  - -> GpsMobileComparatorAppSimulator: utilise et configure
@enduml

PlantUML version 1.2021.17beta4(Unknown compile time)
(GPL source distribution)
Java Runtime: Java(TM) SE Runtime Environment
JVM: Java HotSpot(TM) 64-Bit Server VM
Default Encoding: UTF-8
Language: en
Country: US
--></g></svg>