<?xml version="1.0" encoding="UTF-8" standalone="no"?><svg xmlns="http://www.w3.org/2000/svg" xmlns:xlink="http://www.w3.org/1999/xlink" contentScriptType="application/ecmascript" contentStyleType="text/css" height="1074px" preserveAspectRatio="none" style="width:1166px;height:1074px;background:#FFFFFF;" version="1.1" viewBox="0 0 1166 1074" width="1166px" zoomAndPan="magnify"><defs><filter height="300%" id="fvdtk8i2arlhg" width="300%" x="-1" y="-1"><feGaussianBlur result="blurOut" stdDeviation="2.0"/><feColorMatrix in="blurOut" result="blurOut2" type="matrix" values="0 0 0 0 0 0 0 0 0 0 0 0 0 0 0 0 0 0 .4 0"/><feOffset dx="4.0" dy="4.0" in="blurOut2" result="blurOut3"/><feBlend in="SourceGraphic" in2="blurOut3" mode="normal"/></filter></defs><g><!--MD5=[3803e5d52f91687df277c84fb8062e99]
entity ChargéDeLaboratoire--><ellipse cx="742" cy="14" fill="#FEFECE" filter="url(#fvdtk8i2arlhg)" rx="8" ry="8" style="stroke:#A80036;stroke-width:1.5;"/><path d="M742,22 L742,49 M729,30 L755,30 M742,49 L729,64 M742,49 L755,64 " fill="none" filter="url(#fvdtk8i2arlhg)" style="stroke:#A80036;stroke-width:1.5;"/><text fill="#000000" font-family="sans-serif" font-size="14" lengthAdjust="spacing" textLength="155" x="664.5" y="82.4951">ChargéDeLaboratoire</text><!--MD5=[db11383ff3a148b1ddf9b7fccaba896c]
entity TesteurSystem--><ellipse cx="109" cy="14" fill="#FEFECE" filter="url(#fvdtk8i2arlhg)" rx="8" ry="8" style="stroke:#A80036;stroke-width:1.5;"/><path d="M109,22 L109,49 M96,30 L122,30 M109,49 L96,64 M109,49 L122,64 " fill="none" filter="url(#fvdtk8i2arlhg)" style="stroke:#A80036;stroke-width:1.5;"/><text fill="#000000" font-family="sans-serif" font-size="14" lengthAdjust="spacing" textLength="109" x="54.5" y="82.4951">TesteurSystem</text><!--MD5=[b90bc90684e5d544d51fe5a7c391d9af]
entity IDataReader--><ellipse cx="897" cy="566" fill="#FEFECE" filter="url(#fvdtk8i2arlhg)" rx="8" ry="8" style="stroke:#A80036;stroke-width:1.5;"/><text fill="#000000" font-family="sans-serif" font-size="14" lengthAdjust="spacing" textLength="89" x="852.5" y="595.9951">IDataReader</text><!--MD5=[842efaca1b91ae372aec8c2ca7539b50]
entity IExternalService--><ellipse cx="444" cy="690" fill="#FEFECE" filter="url(#fvdtk8i2arlhg)" rx="8" ry="8" style="stroke:#A80036;stroke-width:1.5;"/><text fill="#000000" font-family="sans-serif" font-size="14" lengthAdjust="spacing" textLength="117" x="385.5" y="719.9951">IExternalService</text><!--MD5=[2897e7948b16a70c96820f1bd1720318]
entity IRouteComparator--><ellipse cx="316" cy="380" fill="#FEFECE" filter="url(#fvdtk8i2arlhg)" rx="8" ry="8" style="stroke:#A80036;stroke-width:1.5;"/><text fill="#000000" font-family="sans-serif" font-size="14" lengthAdjust="spacing" textLength="134" x="249" y="409.9951">IRouteComparator</text><!--MD5=[f866d8bfbf53c1f5d784d6083204d555]
entity IServiceDiscovery--><ellipse cx="725" cy="690" fill="#FEFECE" filter="url(#fvdtk8i2arlhg)" rx="8" ry="8" style="stroke:#A80036;stroke-width:1.5;"/><text fill="#000000" font-family="sans-serif" font-size="14" lengthAdjust="spacing" textLength="127" x="661.5" y="719.9951">IServiceDiscovery</text><!--MD5=[18592175333be2d560e2840ee7365b96]
entity IServiceRegister--><ellipse cx="725" cy="935.5" fill="#FEFECE" filter="url(#fvdtk8i2arlhg)" rx="8" ry="8" style="stroke:#A80036;stroke-width:1.5;"/><text fill="#000000" font-family="sans-serif" font-size="14" lengthAdjust="spacing" textLength="118" x="666" y="965.4951">IServiceRegister</text><!--MD5=[eb4ecfecf4db4d82c1851e621d8c09d4]
entity ChaosMonkey--><rect fill="#FEFECE" filter="url(#fvdtk8i2arlhg)" height="62.5938" style="stroke:#A80036;stroke-width:1.5;" width="204" x="640" y="255.5"/><rect fill="#FEFECE" height="10" style="stroke:#A80036;stroke-width:1.5;" width="15" x="824" y="260.5"/><rect fill="#FEFECE" height="2" style="stroke:#A80036;stroke-width:1.5;" width="4" x="822" y="262.5"/><rect fill="#FEFECE" height="2" style="stroke:#A80036;stroke-width:1.5;" width="4" x="822" y="266.5"/><text fill="#000000" font-family="sans-serif" font-size="14" font-style="italic" lengthAdjust="spacing" textLength="164" x="655" y="288.4951">«Microservice avec UI»</text><text fill="#000000" font-family="sans-serif" font-size="14" lengthAdjust="spacing" textLength="99" x="687.5" y="304.792">ChaosMonkey</text><!--MD5=[c7cfc8e5f96cfc3ab124b32464654232]
entity ExternalServices--><rect fill="#FEFECE" filter="url(#fvdtk8i2arlhg)" height="62.5938" style="stroke:#A80036;stroke-width:1.5;" width="160" x="364" y="782.5"/><rect fill="#FEFECE" height="10" style="stroke:#A80036;stroke-width:1.5;" width="15" x="504" y="787.5"/><rect fill="#FEFECE" height="2" style="stroke:#A80036;stroke-width:1.5;" width="4" x="502" y="789.5"/><rect fill="#FEFECE" height="2" style="stroke:#A80036;stroke-width:1.5;" width="4" x="502" y="793.5"/><text fill="#000000" font-family="sans-serif" font-size="14" font-style="italic" lengthAdjust="spacing" textLength="108" x="385" y="815.4951">«Microservice»</text><text fill="#000000" font-family="sans-serif" font-size="14" lengthAdjust="spacing" textLength="120" x="379" y="831.792">ExternalServices</text><!--MD5=[60f080fb49f18f79266a0db85eb51764]
entity GpsAppSimulator--><rect fill="#FEFECE" filter="url(#fvdtk8i2arlhg)" height="62.5938" style="stroke:#A80036;stroke-width:1.5;" width="204" x="7" y="162.5"/><rect fill="#FEFECE" height="10" style="stroke:#A80036;stroke-width:1.5;" width="15" x="191" y="167.5"/><rect fill="#FEFECE" height="2" style="stroke:#A80036;stroke-width:1.5;" width="4" x="189" y="169.5"/><rect fill="#FEFECE" height="2" style="stroke:#A80036;stroke-width:1.5;" width="4" x="189" y="173.5"/><text fill="#000000" font-family="sans-serif" font-size="14" font-style="italic" lengthAdjust="spacing" textLength="164" x="22" y="195.4951">«Microservice avec UI»</text><text fill="#000000" font-family="sans-serif" font-size="14" lengthAdjust="spacing" textLength="127" x="40.5" y="211.792">GpsAppSimulator</text><!--MD5=[6d06dfb60107727bfa086343b3f3a4a5]
entity ServerSimulation--><rect fill="#FEFECE" filter="url(#fvdtk8i2arlhg)" height="62.5938" style="stroke:#A80036;stroke-width:1.5;" width="163" x="891.5" y="658.5"/><rect fill="#FEFECE" height="10" style="stroke:#A80036;stroke-width:1.5;" width="15" x="1034.5" y="663.5"/><rect fill="#FEFECE" height="2" style="stroke:#A80036;stroke-width:1.5;" width="4" x="1032.5" y="665.5"/><rect fill="#FEFECE" height="2" style="stroke:#A80036;stroke-width:1.5;" width="4" x="1032.5" y="669.5"/><text fill="#000000" font-family="sans-serif" font-size="14" font-style="italic" lengthAdjust="spacing" textLength="108" x="914" y="691.4951">«Microservice»</text><text fill="#000000" font-family="sans-serif" font-size="14" lengthAdjust="spacing" textLength="123" x="906.5" y="707.792">ServerSimulation</text><!--MD5=[1b0d038426a787eef4ce1ef33dbafe38]
entity ServerSwitch--><rect fill="#FEFECE" filter="url(#fvdtk8i2arlhg)" height="62.5938" style="stroke:#A80036;stroke-width:1.5;" width="204" x="795" y="348.5"/><rect fill="#FEFECE" height="10" style="stroke:#A80036;stroke-width:1.5;" width="15" x="979" y="353.5"/><rect fill="#FEFECE" height="2" style="stroke:#A80036;stroke-width:1.5;" width="4" x="977" y="355.5"/><rect fill="#FEFECE" height="2" style="stroke:#A80036;stroke-width:1.5;" width="4" x="977" y="359.5"/><text fill="#000000" font-family="sans-serif" font-size="14" font-style="italic" lengthAdjust="spacing" textLength="164" x="810" y="381.4951">«Microservice avec UI»</text><text fill="#000000" font-family="sans-serif" font-size="14" lengthAdjust="spacing" textLength="95" x="844.5" y="397.792">ServerSwitch</text><!--MD5=[8b09257cf7a3190a8a26ca3c067c1038]
entity PerturbateurDeTraffic--><rect fill="#FEFECE" filter="url(#fvdtk8i2arlhg)" height="62.5938" style="stroke:#A80036;stroke-width:1.5;" width="204" x="948" y="441.5"/><rect fill="#FEFECE" height="10" style="stroke:#A80036;stroke-width:1.5;" width="15" x="1132" y="446.5"/><rect fill="#FEFECE" height="2" style="stroke:#A80036;stroke-width:1.5;" width="4" x="1130" y="448.5"/><rect fill="#FEFECE" height="2" style="stroke:#A80036;stroke-width:1.5;" width="4" x="1130" y="452.5"/><text fill="#000000" font-family="sans-serif" font-size="14" font-style="italic" lengthAdjust="spacing" textLength="164" x="963" y="474.4951">«Microservice avec UI»</text><text fill="#000000" font-family="sans-serif" font-size="14" lengthAdjust="spacing" textLength="160" x="965" y="490.792">PerturbateurDeTraffic</text><!--MD5=[1efef1404cbab722352884b3ce0cdb7a]
entity RouteComparatorApp--><rect fill="#FEFECE" filter="url(#fvdtk8i2arlhg)" height="62.5938" style="stroke:#A80036;stroke-width:1.5;" width="204" x="246" y="162.5"/><rect fill="#FEFECE" height="10" style="stroke:#A80036;stroke-width:1.5;" width="15" x="430" y="167.5"/><rect fill="#FEFECE" height="2" style="stroke:#A80036;stroke-width:1.5;" width="4" x="428" y="169.5"/><rect fill="#FEFECE" height="2" style="stroke:#A80036;stroke-width:1.5;" width="4" x="428" y="173.5"/><text fill="#000000" font-family="sans-serif" font-size="14" font-style="italic" lengthAdjust="spacing" textLength="164" x="261" y="195.4951">«Microservice avec UI»</text><text fill="#000000" font-family="sans-serif" font-size="14" lengthAdjust="spacing" textLength="160" x="263" y="211.792">RouteComparatorApp</text><!--MD5=[d98e2dfd9ac48ebdbd37b54d4f43e7f8]
entity RouteComparatorService--><rect fill="#FEFECE" filter="url(#fvdtk8i2arlhg)" height="62.5938" style="stroke:#A80036;stroke-width:1.5;" width="223" x="332.5" y="534.5"/><rect fill="#FEFECE" height="10" style="stroke:#A80036;stroke-width:1.5;" width="15" x="535.5" y="539.5"/><rect fill="#FEFECE" height="2" style="stroke:#A80036;stroke-width:1.5;" width="4" x="533.5" y="541.5"/><rect fill="#FEFECE" height="2" style="stroke:#A80036;stroke-width:1.5;" width="4" x="533.5" y="545.5"/><text fill="#000000" font-family="sans-serif" font-size="14" font-style="italic" lengthAdjust="spacing" textLength="108" x="385" y="567.4951">«Microservice»</text><text fill="#000000" font-family="sans-serif" font-size="14" lengthAdjust="spacing" textLength="183" x="347.5" y="583.792">RouteComparatorService</text><!--MD5=[7c70543e1842cd203974831c9b7b3000]
entity ServiceDiscovery--><rect fill="#FEFECE" filter="url(#fvdtk8i2arlhg)" height="62.5938" style="stroke:#A80036;stroke-width:1.5;" width="163" x="643.5" y="782.5"/><rect fill="#FEFECE" height="10" style="stroke:#A80036;stroke-width:1.5;" width="15" x="786.5" y="787.5"/><rect fill="#FEFECE" height="2" style="stroke:#A80036;stroke-width:1.5;" width="4" x="784.5" y="789.5"/><rect fill="#FEFECE" height="2" style="stroke:#A80036;stroke-width:1.5;" width="4" x="784.5" y="793.5"/><text fill="#000000" font-family="sans-serif" font-size="14" font-style="italic" lengthAdjust="spacing" textLength="108" x="666" y="815.4951">«Microservice»</text><text fill="#000000" font-family="sans-serif" font-size="14" lengthAdjust="spacing" textLength="123" x="658.5" y="831.792">ServiceDiscovery</text><!--MD5=[9ca40f2a64556181ca55ec72c55446c1]
entity TimeTravelCalculator--><rect fill="#FEFECE" filter="url(#fvdtk8i2arlhg)" height="62.5938" style="stroke:#A80036;stroke-width:1.5;" width="192" x="497" y="348.5"/><rect fill="#FEFECE" height="10" style="stroke:#A80036;stroke-width:1.5;" width="15" x="669" y="353.5"/><rect fill="#FEFECE" height="2" style="stroke:#A80036;stroke-width:1.5;" width="4" x="667" y="355.5"/><rect fill="#FEFECE" height="2" style="stroke:#A80036;stroke-width:1.5;" width="4" x="667" y="359.5"/><text fill="#000000" font-family="sans-serif" font-size="14" font-style="italic" lengthAdjust="spacing" textLength="108" x="534" y="381.4951">«Microservice»</text><text fill="#000000" font-family="sans-serif" font-size="14" lengthAdjust="spacing" textLength="152" x="512" y="397.792">TimeTravelCalculator</text><!--MD5=[b0c9c0ed7eda9df2223b008de123c397]
entity TrafficMonitoring--><rect fill="#FEFECE" filter="url(#fvdtk8i2arlhg)" height="62.5938" style="stroke:#A80036;stroke-width:1.5;" width="204" x="485" y="162.5"/><rect fill="#FEFECE" height="10" style="stroke:#A80036;stroke-width:1.5;" width="15" x="669" y="167.5"/><rect fill="#FEFECE" height="2" style="stroke:#A80036;stroke-width:1.5;" width="4" x="667" y="169.5"/><rect fill="#FEFECE" height="2" style="stroke:#A80036;stroke-width:1.5;" width="4" x="667" y="173.5"/><text fill="#000000" font-family="sans-serif" font-size="14" font-style="italic" lengthAdjust="spacing" textLength="164" x="500" y="195.4951">«Microservice avec UI»</text><text fill="#000000" font-family="sans-serif" font-size="14" lengthAdjust="spacing" textLength="125" x="519.5" y="211.792">TrafficMonitoring</text><path d="M282,915.5 L282,955.7656 A0,0 0 0 0 282,955.7656 L606,955.7656 A0,0 0 0 0 606,955.7656 L606,925.5 L596,915.5 L448,915.5 L444,845.774 L440,915.5 L282,915.5 A0,0 0 0 0 282,915.5 " fill="#FBFB77" filter="url(#fvdtk8i2arlhg)" style="stroke:#A80036;stroke-width:1.0;"/><path d="M596,915.5 L596,925.5 L606,925.5 L596,915.5 " fill="#FBFB77" style="stroke:#A80036;stroke-width:1.0;"/><text fill="#000000" font-family="sans-serif" font-size="13" lengthAdjust="spacing" textLength="231" x="288" y="932.5669">Un seul service externe par équipeÉ</text><text fill="#000000" font-family="sans-serif" font-size="13" lengthAdjust="spacing" textLength="303" x="288" y="947.6997">Chaque équipe doit utiliser un service différent.</text><path d="M595.5,1025.5 L595.5,1065.7656 A0,0 0 0 0 595.5,1065.7656 L854.5,1065.7656 A0,0 0 0 0 854.5,1065.7656 L854.5,1035.5 L844.5,1025.5 L729,1025.5 L725,944.618 L721,1025.5 L595.5,1025.5 A0,0 0 0 0 595.5,1025.5 " fill="#FBFB77" filter="url(#fvdtk8i2arlhg)" style="stroke:#A80036;stroke-width:1.0;"/><path d="M844.5,1025.5 L844.5,1035.5 L854.5,1035.5 L844.5,1025.5 " fill="#FBFB77" style="stroke:#A80036;stroke-width:1.0;"/><text fill="#000000" font-family="sans-serif" font-size="13" lengthAdjust="spacing" textLength="238" x="601.5" y="1042.5669">Tous les microservices s'enregistrent</text><text fill="#000000" font-family="sans-serif" font-size="13" lengthAdjust="spacing" textLength="163" x="601.5" y="1057.6997">à l'aide de cette interface</text><!--MD5=[370b3575b6be68460e3af1cba91048b7]
link PerturbateurDeTraffic to ServerSimulation--><path d="M1038.97,504.804 C1024.33,545.676 998.639,617.41 984.012,658.253 " fill="none" id="PerturbateurDeTraffic-ServerSimulation" style="stroke:#A80036;stroke-width:1.0;"/><text fill="#000000" font-family="sans-serif" font-size="13" lengthAdjust="spacing" textLength="55" x="1029" y="570.5669">perturbe</text><!--MD5=[a177bc169e74215ce02e5c3dd9272cf4]
reverse link IExternalService to ExternalServices--><path d="M444,719.122 C444,737.992 444,762.849 444,782.244 " fill="none" id="IExternalService-backto-ExternalServices" style="stroke:#A80036;stroke-width:1.0;stroke-dasharray:7.0,7.0;"/><polygon fill="none" points="437,719.005,444,699.005,451,719.005,437,719.005" style="stroke:#A80036;stroke-width:1.0;"/><!--MD5=[7e0a1d36589d45ac5e972aa6ddd22636]
link ServiceDiscovery to IServiceRegister--><path d="M725,845.774 C725,864.422 725,888.037 725,906.216 " fill="none" id="ServiceDiscovery-to-IServiceRegister" style="stroke:#A80036;stroke-width:1.0;stroke-dasharray:7.0,7.0;"/><polygon fill="none" points="732,906.382,725,926.382,718,906.382,732,906.382" style="stroke:#A80036;stroke-width:1.0;"/><!--MD5=[3105067488bb2591281d54636d51d73a]
reverse link IServiceDiscovery to ServiceDiscovery--><path d="M725,719.122 C725,737.992 725,762.849 725,782.244 " fill="none" id="IServiceDiscovery-backto-ServiceDiscovery" style="stroke:#A80036;stroke-width:1.0;stroke-dasharray:7.0,7.0;"/><polygon fill="none" points="718,719.005,725,699.005,732,719.005,718,719.005" style="stroke:#A80036;stroke-width:1.0;"/><!--MD5=[d3bb12589177d33e1313740e40532431]
link ChaosMonkey to IServiceDiscovery--><path d="M740.694,318.8 C737.237,400.361 727.945,619.541 725.563,675.73 " fill="none" id="ChaosMonkey-to-IServiceDiscovery" style="stroke:#A80036;stroke-width:1.0;"/><polygon fill="#A80036" points="725.342,680.93,729.7191,672.1072,725.5535,675.9345,721.7262,671.7689,725.342,680.93" style="stroke:#A80036;stroke-width:1.0;"/><!--MD5=[17bf90bcf1889c89e88f6d7c12c3e926]
link ChargéDeLaboratoire to PerturbateurDeTraffic--><path d="M819.533,54.32 C887.563,66.099 983.058,94.442 1032,162.5 C1091.3,244.955 1072.96,374.009 1059.22,436.168 " fill="none" id="ChargéDeLaboratoire-to-PerturbateurDeTraffic" style="stroke:#A80036;stroke-width:1.0;"/><polygon fill="#A80036" points="1058.07,441.249,1063.9491,433.3474,1059.1682,436.3711,1056.1445,431.5902,1058.07,441.249" style="stroke:#A80036;stroke-width:1.0;"/><!--MD5=[e801dc08cbc8dd002959749b45d7792d]
link ChargéDeLaboratoire to ChaosMonkey--><path d="M739.991,85.684 C739.579,95.431 739.208,105.84 739,115.5 C738,161.857 739.346,215.31 740.543,249.825 " fill="none" id="ChargéDeLaboratoire-to-ChaosMonkey" style="stroke:#A80036;stroke-width:1.0;"/><polygon fill="#A80036" points="740.733,255.197,744.4116,246.0609,740.5559,250.2001,736.4167,246.3444,740.733,255.197" style="stroke:#A80036;stroke-width:1.0;"/><text fill="#000000" font-family="sans-serif" font-size="13" lengthAdjust="spacing" textLength="119" x="740" y="128.5669">Utilise et configure</text><!--MD5=[9f321dec869b66349fd0860abd626077]
link ChargéDeLaboratoire to ServerSwitch--><path d="M819.716,76.01 C836.795,86.093 853.035,99.08 864,115.5 C910.631,185.328 907.615,289.166 901.991,343.28 " fill="none" id="ChargéDeLaboratoire-to-ServerSwitch" style="stroke:#A80036;stroke-width:1.0;"/><polygon fill="#A80036" points="901.441,348.359,906.3871,339.8422,901.9795,343.3881,898.4336,338.9805,901.441,348.359" style="stroke:#A80036;stroke-width:1.0;"/><text fill="#000000" font-family="sans-serif" font-size="13" lengthAdjust="spacing" textLength="121" x="902" y="198.5669">switch data source</text><!--MD5=[1a7673fd29f14e4e7d76b2f1ddd50905]
link ChargéDeLaboratoire to RouteComparatorApp--><path d="M664.452,64.22 C616.341,76.518 553.678,94.335 500,115.5 C468.089,128.083 433.944,145.141 406.117,160.05 " fill="none" id="ChargéDeLaboratoire-to-RouteComparatorApp" style="stroke:#A80036;stroke-width:1.0;"/><polygon fill="#A80036" points="401.707,162.423,411.5277,161.6793,406.1097,160.0531,407.7359,154.635,401.707,162.423" style="stroke:#A80036;stroke-width:1.0;"/><text fill="#000000" font-family="sans-serif" font-size="13" lengthAdjust="spacing" textLength="119" x="501" y="128.5669">Utilise et configure</text><!--MD5=[d4810d7368d4ffb41b0773386f0c7951]
link ChargéDeLaboratoire to TrafficMonitoring--><path d="M678.77,85.643 C666.304,94.739 653.764,104.882 643,115.5 C630.148,128.178 618.11,144.07 608.513,158.158 " fill="none" id="ChargéDeLaboratoire-to-TrafficMonitoring" style="stroke:#A80036;stroke-width:1.0;"/><polygon fill="#A80036" points="605.615,162.466,613.9567,157.23,608.4053,158.317,607.3183,152.7656,605.615,162.466" style="stroke:#A80036;stroke-width:1.0;"/><text fill="#000000" font-family="sans-serif" font-size="13" lengthAdjust="spacing" textLength="54" x="644" y="128.5669">Observe</text><!--MD5=[40f44c00e7453caa32b58fc69ee9785d]
link GpsAppSimulator to IRouteComparator--><path d="M143.647,225.797 C190.35,267.311 271.284,339.252 302.854,367.315 " fill="none" id="GpsAppSimulator-to-IRouteComparator" style="stroke:#A80036;stroke-width:1.0;"/><polygon fill="#A80036" points="306.801,370.823,302.7311,361.8544,303.0637,367.5014,297.4166,367.834,306.801,370.823" style="stroke:#A80036;stroke-width:1.0;"/><!--MD5=[a204a976054053a09076a82d1da72ffa]
reverse link IDataReader to ServerSimulation--><path d="M912.585,592.018 C924.533,611.198 941.083,637.765 953.84,658.244 " fill="none" id="IDataReader-backto-ServerSimulation" style="stroke:#A80036;stroke-width:1.0;stroke-dasharray:7.0,7.0;"/><polygon fill="none" points="906.62,595.682,901.987,575.005,918.503,588.279,906.62,595.682" style="stroke:#A80036;stroke-width:1.0;"/><!--MD5=[2a5a75164cc00a425f2ac140bf21ee30]
link ServerSwitch to IDataReader--><path d="M887.193,411.797 C883.164,446.703 883.272,503.119 887.516,536.878 " fill="none" id="ServerSwitch-to-IDataReader" style="stroke:#A80036;stroke-width:1.0;stroke-dasharray:7.0,7.0;"/><polygon fill="none" points="894.448,535.863,891.337,556.823,880.698,538.497,894.448,535.863" style="stroke:#A80036;stroke-width:1.0;"/><!--MD5=[2a5a75164cc00a425f2ac140bf21ee30]
link ServerSwitch to IDataReader--><path d="M907.384,411.797 C912.374,452.633 911.371,522.911 904.373,551.906 " fill="none" id="ServerSwitch-to-IDataReader-1" style="stroke:#A80036;stroke-width:1.0;"/><polygon fill="#A80036" points="902.996,556.823,909.2754,549.2355,904.3447,552.0083,901.5719,547.0776,902.996,556.823" style="stroke:#A80036;stroke-width:1.0;"/><!--MD5=[30db7db35a8ab1edaa45edc3e3c43dfa]
link RouteComparatorApp to IRouteComparator--><path d="M342.644,225.797 C335.572,266.464 323.421,336.328 318.34,365.543 " fill="none" id="RouteComparatorApp-to-IRouteComparator" style="stroke:#A80036;stroke-width:1.0;"/><polygon fill="#A80036" points="317.422,370.823,322.9057,362.642,318.2792,365.897,315.0242,361.2705,317.422,370.823" style="stroke:#A80036;stroke-width:1.0;"/><!--MD5=[3211d2062376f81551a01d9f31722011]
reverse link TimeTravelCalculator to IDataReader--><path d="M647.96,414.265 C723.017,459.695 852.326,537.961 887.78,559.42 " fill="none" id="TimeTravelCalculator-backto-IDataReader" style="stroke:#A80036;stroke-width:1.0;"/><polygon fill="#A80036" points="643.541,411.59,649.1708,419.6712,647.819,414.1782,653.3119,412.8264,643.541,411.59" style="stroke:#A80036;stroke-width:1.0;"/><!--MD5=[5f484a8775aa024e3fa98bab8a2f2145]
reverse link TrafficMonitoring to TimeTravelCalculator--><path d="M588.178,231.141 C589.294,265.353 590.951,316.15 592.002,348.409 " fill="none" id="TrafficMonitoring-backto-TimeTravelCalculator" style="stroke:#A80036;stroke-width:1.0;"/><polygon fill="#A80036" points="588.004,225.797,584.2993,234.9225,588.1669,230.7943,592.295,234.6619,588.004,225.797" style="stroke:#A80036;stroke-width:1.0;"/><!--MD5=[8602a0a01eb9a366ef19a184ed8bd97f]
reverse link TrafficMonitoring to RouteComparatorService--><path d="M555.675,229.573 C530.81,259.02 497.288,303.589 479,348.5 C453.44,411.269 446.504,491.419 444.649,534.433 " fill="none" id="TrafficMonitoring-backto-RouteComparatorService" style="stroke:#A80036;stroke-width:1.0;"/><polygon fill="#A80036" points="558.97,225.7,550.0926,229.9651,555.731,229.5091,556.1871,235.1475,558.97,225.7" style="stroke:#A80036;stroke-width:1.0;"/><!--MD5=[0cbbcba7f61df7d8f9750dddea48b902]
link RouteComparatorService to IExternalService--><path d="M444,597.786 C444,622.862 444,657.053 444,675.638 " fill="none" id="RouteComparatorService-to-IExternalService" style="stroke:#A80036;stroke-width:1.0;"/><polygon fill="#A80036" points="444,680.877,448,671.877,444,675.877,440,671.877,444,680.877" style="stroke:#A80036;stroke-width:1.0;"/><!--MD5=[11b538aaf071db10615b172c86713022]
link RouteComparatorService to IServiceDiscovery--><path d="M514.545,597.628 C581.175,626.556 675.985,667.72 711.166,682.994 " fill="none" id="RouteComparatorService-to-IServiceDiscovery" style="stroke:#A80036;stroke-width:1.0;"/><polygon fill="#A80036" points="715.914,685.055,709.2502,677.8028,711.3273,683.0646,706.0655,685.1416,715.914,685.055" style="stroke:#A80036;stroke-width:1.0;"/><!--MD5=[17357efc7e9843ab0f19a84123fb14d2]
reverse link IRouteComparator to RouteComparatorService--><path d="M333.442,406.073 C356.672,439.466 397.734,498.492 422.747,534.448 " fill="none" id="IRouteComparator-backto-RouteComparatorService" style="stroke:#A80036;stroke-width:1.0;stroke-dasharray:7.0,7.0;"/><polygon fill="none" points="327.507,409.8,321.833,389.384,339,401.805,327.507,409.8" style="stroke:#A80036;stroke-width:1.0;"/><!--MD5=[2ddc3fe673f2c0902a7991524746852c]
link TesteurSystem to GpsAppSimulator--><path d="M109,85.78 C109,107.979 109,135.416 109,156.979 " fill="none" id="TesteurSystem-to-GpsAppSimulator" style="stroke:#A80036;stroke-width:1.0;"/><polygon fill="#A80036" points="109,162.045,113,153.045,109,157.045,105,153.045,109,162.045" style="stroke:#A80036;stroke-width:1.0;"/><text fill="#000000" font-family="sans-serif" font-size="13" lengthAdjust="spacing" textLength="118" x="110" y="128.5669">utilise et configure</text><!--MD5=[6f135f1b8457b22ff3518e5d1201557d]
@startuml
Actor ChargéDeLaboratoire
Actor TesteurSystem 

interface IDataReader
interface IExternalService
interface IRouteComparator
interface IServiceDiscovery
interface IServiceRegister

component ChaosMonkey <<Microservice avec UI>>
component ExternalServices <<Microservice>>
component GpsAppSimulator <<Microservice avec UI>>
component ServerSimulation <<Microservice>>
component ServerSwitch <<Microservice avec UI>>
component PerturbateurDeTraffic <<Microservice avec UI>>
component RouteComparatorApp <<Microservice avec UI>>
component RouteComparatorService <<Microservice>>
component ServiceDiscovery <<Microservice>>
component TimeTravelCalculator <<Microservice>>
component TrafficMonitoring<<Microservice avec UI>>

note bottom of ExternalServices: Un seul service externe par équipeÉ\nChaque équipe doit utiliser un service différent.  
note bottom of IServiceRegister: Tous les microservices s'enregistrent\nà l'aide de cette interface


PerturbateurDeTraffic - - ServerSimulation: perturbe


ExternalServices .u.|> IExternalService

ServiceDiscovery .d.|> IServiceRegister
ServiceDiscovery .u.|> IServiceDiscovery
ChaosMonkey - -> IServiceDiscovery 
ChargéDeLaboratoire - -> PerturbateurDeTraffic
ChargéDeLaboratoire - -> ChaosMonkey  : Utilise et configure
ChargéDeLaboratoire - -> ServerSwitch  :switch data source
ChargéDeLaboratoire - -> RouteComparatorApp  : Utilise et configure
ChargéDeLaboratoire - -> TrafficMonitoring: Observe
GpsAppSimulator -d-> IRouteComparator
ServerSimulation .u.|> IDataReader
ServerSwitch  ..|> IDataReader
ServerSwitch - -> IDataReader
RouteComparatorApp - -> IRouteComparator
TimeTravelCalculator <- - IDataReader
TimeTravelCalculator -u-> TrafficMonitoring
RouteComparatorService -u-> TrafficMonitoring
RouteComparatorService - -> IExternalService
RouteComparatorService - -> IServiceDiscovery
RouteComparatorService .u.|> IRouteComparator
TesteurSystem  - -> GpsAppSimulator: utilise et configure
@enduml

PlantUML version 1.2021.17beta10(Unknown compile time)
(GPL source distribution)
Java Runtime: Java(TM) SE Runtime Environment
JVM: Java HotSpot(TM) 64-Bit Server VM
Default Encoding: UTF-8
Language: en
Country: US
--></g></svg>